<svg width="170" height="207" viewBox="0 0 170 207" fill="none" xmlns="http://www.w3.org/2000/svg">
<mask id="mask0_11_947" style="mask-type:luminance" maskUnits="userSpaceOnUse" x="67" y="33" width="81" height="81">
<path d="M67.6022 33.3754H147.664V113.211H67.6022V33.3754Z" fill="white"/>
</mask>
<g mask="url(#mask0_11_947)">
<path d="M144.025 62.4068V55.149H140.386V47.8911H136.746V44.2627H133.107V40.6332H125.829V37.0048H118.55V33.3754H96.7155V37.0048H89.4369V40.6332H82.1583V44.2627H78.5196V47.8911H74.8798V55.149H71.241V62.4068H67.6022V84.1794H71.241V91.4373H74.8798V98.6951H78.5196V102.324H82.1583V105.953H89.4369V109.581H96.7155V113.211H118.55V109.581H125.829V105.953H133.107V102.324H136.746V98.6951H140.386V91.4373H144.025V84.1794H147.664V62.4068H144.025Z" fill="#FFED95"/>
</g>
<mask id="mask1_11_947" style="mask-type:luminance" maskUnits="userSpaceOnUse" x="140" y="62" width="8" height="23">
<path d="M140.146 62.1876H147.664V84.2666H140.146V62.1876Z" fill="white"/>
</mask>
<g mask="url(#mask1_11_947)">
<path d="M144.025 62.4067V69.6646H140.386V76.9215H144.025V84.1793H147.664V62.4067H144.025Z" fill="#F7E05A"/>
</g>
<path d="M136.746 95.0667H133.107V98.6951H125.829V95.0667H114.911V91.4373H111.273V87.8089H107.633V84.1794H111.273V80.551H107.633V76.9215H114.911V80.551H118.55V87.8089H125.829V76.9215H122.19V73.2931H118.55V69.6647H107.633V73.2931H100.354V80.551H103.994V91.4373H100.354V102.324H103.994V98.6951H111.273V102.324H118.55V105.953H111.273V102.324H103.994V105.953H100.354V102.324H93.0757V98.6951H89.4369V91.4373H93.0757V84.1794H89.4369V80.551H85.7981V91.4373H78.5196V76.9215H74.8798V69.6647H78.5196V58.7774H82.1583V51.5205H85.7981V47.8911H89.4369V44.2627H96.7155V40.6332H103.994V37.0048H118.55V33.3754H96.7155V37.0048H89.4369V40.6332H82.1583V44.2627H78.5196V47.8911H74.8798V55.149H71.241V62.4068H67.6022V84.1794H71.241V91.4373H74.8798V98.6951H78.5196V102.324H82.1583V105.953H89.4369V109.581H96.7155V113.211H118.55V109.581H125.829V105.953H133.107V102.324H136.746V98.6951H140.386V91.4373H136.746V95.0667Z" fill="#F7E05A"/>
<path d="M140.386 62.4068H144.025V55.1489H136.746V58.7774H140.386V62.4068Z" fill="#F7E05A"/>
<path d="M89.4369 76.9215H93.0757V80.5509H89.4369V76.9215Z" fill="#F7E05A"/>
<path d="M93.0757 69.6647H96.7155V73.2931H93.0757V69.6647Z" fill="#F7E05A"/>
<path d="M96.7155 84.1794H100.354V87.8089H96.7155V84.1794Z" fill="#F7E05A"/>
<path d="M111.273 84.1794H114.911V87.8089H111.273V84.1794Z" fill="#F7E05A"/>
<path d="M133.107 73.2931H136.746V58.7773H129.468V62.4068H133.107V66.0352H129.468V69.6647H125.829V76.9215H133.107V73.2931Z" fill="#F7E05A"/>
<path d="M114.911 62.4069H118.55V66.0353H114.911V62.4069Z" fill="#F7E05A"/>
<path d="M140.386 80.5509V76.9215H133.107V80.5509H129.468V87.8088H125.829V95.0667H133.107V87.8088H140.386V91.4372H144.025V84.1794H140.386V80.5509Z" fill="#F7E05A"/>
<path d="M100.354 47.8911H103.994V51.5206H100.354V47.8911Z" fill="#F7E05A"/>
<path d="M89.4369 55.1489H96.7155V62.4068H89.4369V55.1489Z" fill="#F7E05A"/>
<path d="M111.273 44.2627H118.55V51.5206H111.273V44.2627Z" fill="#F7E05A"/>
<path d="M129.469 47.8911H136.746V55.149H129.469V47.8911Z" fill="#F7E05A"/>
<path d="M125.829 40.6332H129.468V44.2626H125.829V40.6332Z" fill="#F0CC4C"/>
<path d="M71.241 55.1489H74.8797V62.4068H71.241V55.1489Z" fill="#F0CC4C"/>
<path d="M74.8798 47.8911H78.5196V55.149H74.8798V47.8911Z" fill="#F0CC4C"/>
<path d="M78.5195 44.2627H82.1583V47.8911H78.5195V44.2627Z" fill="#F0CC4C"/>
<path d="M82.1583 40.6332H89.4369V44.2626H82.1583V40.6332Z" fill="#F0CC4C"/>
<path d="M89.4369 37.0048H96.7155V40.6332H89.4369V37.0048Z" fill="#F0CC4C"/>
<mask id="mask2_11_947" style="mask-type:luminance" maskUnits="userSpaceOnUse" x="96" y="33" width="9" height="5">
<path d="M96.6432 33.3754H104.198V37.2514H96.6432V33.3754Z" fill="white"/>
</mask>
<g mask="url(#mask2_11_947)">
<path d="M96.7155 33.3754H103.994V37.0048H96.7155V33.3754Z" fill="#F0CC4C"/>
</g>
<mask id="mask3_11_947" style="mask-type:luminance" maskUnits="userSpaceOnUse" x="67" y="62" width="9" height="30">
<path d="M67.6022 62.1876H75.0222V91.5397H67.6022V62.1876Z" fill="white"/>
</mask>
<g mask="url(#mask3_11_947)">
<path d="M71.241 80.5509V62.4067H67.6022V84.1793H71.241V91.4372H74.8798V80.5509H71.241Z" fill="#F0CC4C"/>
</g>
<path d="M74.8798 91.4373H78.5196V98.6951H74.8798V91.4373Z" fill="#F0CC4C"/>
<path d="M74.8798 76.9215H78.5196V80.5509H74.8798V76.9215Z" fill="#F0CC4C"/>
<path d="M74.8798 62.4069H78.5196V69.6647H74.8798V62.4069Z" fill="#F0CC4C"/>
<path d="M85.7981 102.323V98.6951H78.5195V102.323H82.1583V105.953H89.4369V102.323H85.7981Z" fill="#F0CC4C"/>
<path d="M89.4369 105.953H96.7155V109.581H89.4369V105.953Z" fill="#F0CC4C"/>
<mask id="mask4_11_947" style="mask-type:luminance" maskUnits="userSpaceOnUse" x="96" y="109" width="23" height="5">
<path d="M96.6432 109.463H118.785V113.211H96.6432V109.463Z" fill="white"/>
</mask>
<g mask="url(#mask4_11_947)">
<path d="M96.7155 109.582H118.55V113.211H96.7155V109.582Z" fill="#F0CC4C"/>
</g>
<path d="M118.55 105.953H125.829V109.581H118.55V105.953Z" fill="#F0CC4C"/>
<path d="M125.829 102.324H133.107V105.953H125.829V102.324Z" fill="#F0CC4C"/>
<path d="M133.107 98.6951H136.746V102.323H133.107V98.6951Z" fill="#F0CC4C"/>
<path d="M136.746 95.0668H140.386V98.6952H136.746V95.0668Z" fill="#F0CC4C"/>
</svg>
