<svg width="550" height="586" viewBox="0 0 550 586" fill="none" xmlns="http://www.w3.org/2000/svg">
<mask id="mask0_11_1888" style="mask-type:luminance" maskUnits="userSpaceOnUse" x="93" y="99" width="16" height="17">
<path d="M93 99H109V115.253H93V99Z" fill="white"/>
</mask>
<g mask="url(#mask0_11_1888)">
<path d="M108.987 107.967V106.172H101.893V104.427H103.666V102.632H101.893V99.0919H100.094V104.402H98.3461V102.632H96.5464V104.428H98.32V106.172H93V107.967H100.094V109.712H98.32V111.508H100.094V115.046H101.893V109.738H103.641V111.507H105.441V109.712H103.666V107.967H108.987ZM100.12 106.198H101.867V107.942H100.12V106.198Z" fill="#FFE05D"/>
</g>
<g opacity="0.4">
<path d="M521 402.882V401.085H513.9V399.339H515.675V397.543H513.9V394H512.099V399.314H510.35V397.543H508.55V399.34H510.325V401.085H505V402.882H512.099V404.628H510.325V406.425H512.099V409.968H513.9V404.654H515.649V406.425H517.449V404.628H515.675V402.882H521ZM512.126 401.111H513.875V402.857H512.125L512.126 401.111Z" fill="#FFE05D"/>
</g>
<g opacity="0.5">
<path d="M542 279.882V278.085H534.9V276.339H536.675V274.543H534.9V271H533.099V276.314H531.35V274.543H529.55V276.34H531.325V278.085H526V279.882H533.099V281.628H531.325V283.425H533.099V286.968H534.9V281.654H536.649V283.425H538.449V281.628H536.675V279.882H542ZM533.126 278.111H534.875V279.857H533.125L533.126 278.111Z" fill="#FFE05D"/>
</g>
<g opacity="0.7">
<path d="M225 206.882V205.085H217.9V203.339H219.675V201.543H217.9V198H216.099V203.314H214.35V201.543H212.55V203.34H214.325V205.085H209V206.882H216.099V208.628H214.325V210.425H216.099V213.968H217.9V208.654H219.649V210.425H221.449V208.628H219.675V206.882H225ZM216.126 205.111H217.875V206.857H216.125L216.126 205.111Z" fill="#FFE05D"/>
</g>
<g opacity="0.4">
<path d="M362 518.882V517.085H354.9V515.339H356.675V513.543H354.9V510H353.099V515.314H351.35V513.543H349.55V515.34H351.325V517.085H346V518.882H353.099V520.628H351.325V522.425H353.099V525.968H354.9V520.654H356.649V522.425H358.449V520.628H356.675V518.882H362ZM353.126 517.111H354.875V518.857H353.125L353.126 517.111Z" fill="#FFE05D"/>
</g>
<g opacity="0.4">
<path d="M62 578.882V577.085H54.9003V575.339H56.6748V573.543H54.9003V570H53.0993V575.314H51.3501V573.543H49.5496V575.34H51.3247V577.085H46V578.882H53.0993V580.628H51.3247V582.425H53.0993V585.968H54.8998V580.654H56.6489V582.425H58.4494V580.628H56.6748V578.882H62ZM53.1257 577.111H54.8748V578.857H53.1252L53.1257 577.111Z" fill="#FFE05D"/>
</g>
<g opacity="0.4">
<path d="M171 406.882V405.085H163.9V403.339H165.675V401.543H163.9V398H162.099V403.314H160.35V401.543H158.55V403.34H160.325V405.085H155V406.882H162.099V408.628H160.325V410.425H162.099V413.968H163.9V408.654H165.649V410.425H167.449V408.628H165.675V406.882H171ZM162.126 405.111H163.875V406.857H162.125L162.126 405.111Z" fill="#FFE05D"/>
</g>
<mask id="mask1_11_1888" style="mask-type:luminance" maskUnits="userSpaceOnUse" x="304" y="33" width="16" height="17">
<path d="M304 33H320V49.2531H304V33Z" fill="white"/>
</mask>
<g mask="url(#mask1_11_1888)">
<path d="M319.987 41.9673V40.1717H312.893V38.4274H314.666V36.6318H312.893V33.0919H311.094V38.4022H309.346V36.6318H307.546V38.4282H309.32V40.1717H304V41.9673H311.094V43.7125H309.32V45.5081H311.094V49.0463H312.893V43.7377H314.641V45.5072H316.441V43.7116H314.666V41.9673H319.987ZM311.12 40.1978H312.867V41.9421H311.12V40.1978Z" fill="#FFE05D"/>
</g>
<g opacity="0.4">
<mask id="mask2_11_1888" style="mask-type:luminance" maskUnits="userSpaceOnUse" x="271" y="426" width="16" height="17">
<path d="M271 426H287V442.253H271V426Z" fill="white"/>
</mask>
<g mask="url(#mask2_11_1888)">
<path d="M286.987 434.967V433.172H279.893V431.427H281.666V429.632H279.893V426.092H278.094V431.402H276.346V429.632H274.546V431.428H276.32V433.172H271V434.967H278.094V436.712H276.32V438.508H278.094V442.046H279.893V436.738H281.641V438.507H283.441V436.712H281.666V434.967H286.987ZM278.12 433.198H279.867V434.942H278.12V433.198Z" fill="#FFE05D"/>
</g>
</g>
<g opacity="0.7">
<mask id="mask3_11_1888" style="mask-type:luminance" maskUnits="userSpaceOnUse" x="364" y="232" width="16" height="17">
<path d="M364 232H380V248.253H364V232Z" fill="white"/>
</mask>
<g mask="url(#mask3_11_1888)">
<path d="M379.987 240.967V239.172H372.893V237.427H374.666V235.632H372.893V232.092H371.094V237.402H369.346V235.632H367.546V237.428H369.32V239.172H364V240.967H371.094V242.712H369.32V244.508H371.094V248.046H372.893V242.738H374.641V244.507H376.441V242.712H374.666V240.967H379.987ZM371.12 239.198H372.867V240.942H371.12V239.198Z" fill="#FFE05D"/>
</g>
</g>
<g opacity="0.4">
<mask id="mask4_11_1888" style="mask-type:luminance" maskUnits="userSpaceOnUse" x="534" y="510" width="16" height="17">
<path d="M534 510H550V526.253H534V510Z" fill="white"/>
</mask>
<g mask="url(#mask4_11_1888)">
<path d="M549.987 518.967V517.172H542.893V515.427H544.666V513.632H542.893V510.092H541.094V515.402H539.346V513.632H537.546V515.428H539.32V517.172H534V518.967H541.094V520.712H539.32V522.508H541.094V526.046H542.893V520.738H544.641V522.507H546.441V520.712H544.666V518.967H549.987ZM541.12 517.198H542.867V518.942H541.12V517.198Z" fill="#FFE05D"/>
</g>
</g>
<g opacity="0.4">
<mask id="mask5_11_1888" style="mask-type:luminance" maskUnits="userSpaceOnUse" x="399" y="332" width="16" height="17">
<path d="M399 332H415V348.253H399V332Z" fill="white"/>
</mask>
<g mask="url(#mask5_11_1888)">
<path d="M414.987 340.967V339.172H407.893V337.427H409.666V335.632H407.893V332.092H406.094V337.402H404.346V335.632H402.546V337.428H404.32V339.172H399V340.967H406.094V342.712H404.32V344.508H406.094V348.046H407.893V342.738H409.641V344.507H411.441V342.712H409.666V340.967H414.987ZM406.12 339.198H407.867V340.942H406.12V339.198Z" fill="#FFE05D"/>
</g>
</g>
<g opacity="0.4">
<mask id="mask6_11_1888" style="mask-type:luminance" maskUnits="userSpaceOnUse" x="290" y="287" width="16" height="17">
<path d="M290 287H306V303.253H290V287Z" fill="white"/>
</mask>
<g mask="url(#mask6_11_1888)">
<path d="M305.987 295.967V294.172H298.893V292.427H300.666V290.632H298.893V287.092H297.094V292.402H295.346V290.632H293.546V292.428H295.32V294.172H290V295.967H297.094V297.712H295.32V299.508H297.094V303.046H298.893V297.738H300.641V299.507H302.441V297.712H300.666V295.967H305.987ZM297.12 294.198H298.867V295.942H297.12V294.198Z" fill="#FFE05D"/>
</g>
</g>
<g opacity="0.7">
<mask id="mask7_11_1888" style="mask-type:luminance" maskUnits="userSpaceOnUse" x="93" y="279" width="16" height="17">
<path d="M93 279H109V295.253H93V279Z" fill="white"/>
</mask>
<g mask="url(#mask7_11_1888)">
<path d="M108.987 287.967V286.172H101.893V284.427H103.666V282.632H101.893V279.092H100.094V284.402H98.3461V282.632H96.5464V284.428H98.32V286.172H93V287.967H100.094V289.712H98.32V291.508H100.094V295.046H101.893V289.738H103.641V291.507H105.441V289.712H103.666V287.967H108.987ZM100.12 286.198H101.867V287.942H100.12V286.198Z" fill="#FFE05D"/>
</g>
</g>
<g opacity="0.4">
<mask id="mask8_11_1888" style="mask-type:luminance" maskUnits="userSpaceOnUse" x="27" y="426" width="16" height="17">
<path d="M27 426H43V442.253H27V426Z" fill="white"/>
</mask>
<g mask="url(#mask8_11_1888)">
<path d="M42.987 434.967V433.172H35.8933V431.427H37.6661V429.632H35.8933V426.092H34.0937V431.402H32.3461V429.632H30.5464V431.428H32.32V433.172H27V434.967H34.0937V436.712H32.32V438.508H34.0937V442.046H35.8933V436.738H37.6409V438.507H39.4406V436.712H37.6661V434.967H42.987ZM34.1197 433.198H35.8673V434.942H34.1197V433.198Z" fill="#FFE05D"/>
</g>
</g>
<mask id="mask9_11_1888" style="mask-type:luminance" maskUnits="userSpaceOnUse" x="146" y="5" width="16" height="17">
<path d="M146 5H162V21.2531H146V5Z" fill="white"/>
</mask>
<g mask="url(#mask9_11_1888)">
<path d="M161.987 13.9673V12.1717H154.893V10.4274H156.666V8.63183H154.893V5.09192H153.094V10.4022H151.346V8.63183H149.546V10.4282H151.32V12.1717H146V13.9673H153.094V15.7125H151.32V17.5081H153.094V21.0463H154.893V15.7377H156.641V17.5072H158.441V15.7116H156.666V13.9673H161.987ZM153.12 12.1978H154.867V13.9421H153.12V12.1978Z" fill="#FFE05D"/>
</g>
<mask id="mask10_11_1888" style="mask-type:luminance" maskUnits="userSpaceOnUse" x="43" y="216" width="16" height="17">
<path d="M43 216H59V232.253H43V216Z" fill="white"/>
</mask>
<g mask="url(#mask10_11_1888)">
<path d="M58.987 224.967V223.172H51.8933V221.427H53.6661V219.632H51.8933V216.092H50.0937V221.402H48.3461V219.632H46.5464V221.428H48.32V223.172H43V224.967H50.0937V226.712H48.32V228.508H50.0937V232.046H51.8933V226.738H53.6409V228.507H55.4406V226.712H53.6661V224.967H58.987ZM50.1197 223.198H51.8673V224.942H50.1197V223.198Z" fill="#FFE05D"/>
</g>
<g opacity="0.4">
<mask id="mask11_11_1888" style="mask-type:luminance" maskUnits="userSpaceOnUse" x="0" y="326" width="16" height="17">
<path d="M0 326H16V342.253H0V326Z" fill="white"/>
</mask>
<g mask="url(#mask11_11_1888)">
<path d="M15.987 334.967V333.172H8.89332V331.427H10.6661V329.632H8.89332V326.092H7.09366V331.402H5.34609V329.632H3.54642V331.428H5.32004V333.172H0V334.967H7.09366V336.712H5.32004V338.508H7.09366V342.046H8.89332V336.738H10.6409V338.507H12.4406V336.712H10.6661V334.967H15.987ZM7.1197 333.198H8.86727V334.942H7.1197V333.198Z" fill="#FFE05D"/>
</g>
</g>
<mask id="mask12_11_1888" style="mask-type:luminance" maskUnits="userSpaceOnUse" x="0" y="64" width="16" height="17">
<path d="M0 64H16V80.2531H0V64Z" fill="white"/>
</mask>
<g mask="url(#mask12_11_1888)">
<path d="M15.987 72.9673V71.1717H8.89332V69.4274H10.6661V67.6318H8.89332V64.0919H7.09366V69.4022H5.34609V67.6318H3.54642V69.4282H5.32004V71.1717H0V72.9673H7.09366V74.7125H5.32004V76.5081H7.09366V80.0463H8.89332V74.7377H10.6409V76.5072H12.4406V74.7116H10.6661V72.9673H15.987ZM7.1197 71.1978H8.86727V72.9421H7.1197V71.1978Z" fill="#FFE05D"/>
</g>
<path opacity="0.4" d="M373 422H377V426H373V422Z" fill="#FFE05D"/>
<path opacity="0.7" d="M182 261H186V265H182V261Z" fill="#FFE05D"/>
<path opacity="0.4" d="M92 460H96V464H92V460Z" fill="#FFE05D"/>
<path opacity="0.4" d="M6 526H10V530H6V526Z" fill="#FFE05D"/>
<path d="M70 60H73V63H70V60Z" fill="#FFE05D"/>
<path opacity="0.4" d="M448 469H451V472H448V469Z" fill="#FFE05D"/>
<path opacity="0.7" d="M11 268H14V271H11V268Z" fill="#FFE05D"/>
<path d="M11 156H14V159H11V156Z" fill="#FFE05D"/>
<path d="M223 5H226V8H223V5Z" fill="#FFE05D"/>
<path opacity="0.7" d="M337 192H340V195H337V192Z" fill="#FFE05D"/>
<path opacity="0.4" d="M225 324H228V327H225V324Z" fill="#FFE05D"/>
<path opacity="0.7" d="M203 69H206V72H203V69Z" fill="#FFE05D"/>
<path opacity="0.4" d="M191 501H194V504H191V501Z" fill="#FFE05D"/>
<path opacity="0.4" d="M235 583H238V586H235V583Z" fill="#FFE05D"/>
<path opacity="0.4" d="M424 570H427V573H424V570Z" fill="#FFE05D"/>
<path opacity="0.4" d="M105 357H108V360H105V357Z" fill="#FFE05D"/>
<path d="M33 9H37V13H33V9Z" fill="#FFE05D"/>
<path opacity="0.7" d="M448 271H453V276H448V271Z" fill="#FFE05D"/>
<path d="M397 0H402V5H397V0Z" fill="#FFE05D"/>
<path d="M402 77.8821V76.085H394.9V74.3394H396.675V72.5428H394.9V69H393.099V74.3144H391.35V72.5428H389.55V74.3399H391.325V76.085H386V77.8821H393.099V79.6278H391.325V81.4249H393.099V84.9682H394.9V79.6538H396.649V81.4249H398.449V79.6278H396.675V77.8821H402ZM393.126 76.111H394.875V77.8567H393.125L393.126 76.111Z" fill="#FFE05D"/>
</svg>
