<svg width="574" height="536" viewBox="0 0 574 536" fill="none" xmlns="http://www.w3.org/2000/svg">
<mask id="mask0_1_441" style="mask-type:luminance" maskUnits="userSpaceOnUse" x="-8" y="261" width="13" height="13">
<path d="M-7.25314 261.872H4.36665V273.964H-7.25314V261.872Z" fill="white"/>
</mask>
<g mask="url(#mask0_1_441)">
<path d="M-7.25314 273.314H4.14803V261.902H-7.25314V273.314Z" fill="#2E1B5B"/>
</g>
<mask id="mask1_1_441" style="mask-type:luminance" maskUnits="userSpaceOnUse" x="-8" y="288" width="13" height="13">
<path d="M-7.25314 288.545H4.36665V300.824H-7.25314V288.545Z" fill="white"/>
</mask>
<g mask="url(#mask1_1_441)">
<path d="M-7.25314 300.134H4.14803V288.722H-7.25314V300.134Z" fill="#2E1B5B"/>
</g>
<mask id="mask2_1_441" style="mask-type:luminance" maskUnits="userSpaceOnUse" x="-8" y="301" width="13" height="13">
<path d="M-7.25314 301.591H4.36665V313.87H-7.25314V301.591Z" fill="white"/>
</mask>
<g mask="url(#mask2_1_441)">
<path d="M-7.25314 313.546H4.14803V302.131H-7.25314V313.546Z" fill="#2E1B5B"/>
</g>
<mask id="mask3_1_441" style="mask-type:luminance" maskUnits="userSpaceOnUse" x="-8" y="342" width="13" height="12">
<path d="M-7.25314 342.264H4.36665V353.775H-7.25314V342.264Z" fill="white"/>
</mask>
<g mask="url(#mask3_1_441)">
<path d="M-7.25314 353.775H4.14803V342.363H-7.25314V353.775Z" fill="#2E1B5B"/>
</g>
<mask id="mask4_1_441" style="mask-type:luminance" maskUnits="userSpaceOnUse" x="-8" y="369" width="13" height="12">
<path d="M-7.25314 369.123H4.36665V380.634H-7.25314V369.123Z" fill="white"/>
</mask>
<g mask="url(#mask4_1_441)">
<path d="M-7.25314 380.595H4.14803V369.183H-7.25314V380.595Z" fill="#2E1B5B"/>
</g>
<mask id="mask5_1_441" style="mask-type:luminance" maskUnits="userSpaceOnUse" x="-8" y="382" width="13" height="13">
<path d="M-7.25314 382.169H4.36665V394.447H-7.25314V382.169Z" fill="white"/>
</mask>
<g mask="url(#mask5_1_441)">
<path d="M-7.25314 394.007H4.14803V382.595H-7.25314V394.007Z" fill="#2E1B5B"/>
</g>
<mask id="mask6_1_441" style="mask-type:luminance" maskUnits="userSpaceOnUse" x="-8" y="395" width="13" height="13">
<path d="M-7.25314 395.982H4.36665V407.493H-7.25314V395.982Z" fill="white"/>
</mask>
<g mask="url(#mask6_1_441)">
<path d="M-7.25314 407.418H4.14803V396.006H-7.25314V407.418Z" fill="#2E1B5B"/>
</g>
<mask id="mask7_1_441" style="mask-type:luminance" maskUnits="userSpaceOnUse" x="-8" y="422" width="13" height="13">
<path d="M-7.25314 422.074H4.36665V434.353H-7.25314V422.074Z" fill="white"/>
</mask>
<g mask="url(#mask7_1_441)">
<path d="M-7.25314 434.239H4.14803V422.826H-7.25314V434.239Z" fill="#2E1B5B"/>
</g>
<mask id="mask8_1_441" style="mask-type:luminance" maskUnits="userSpaceOnUse" x="-8" y="435" width="13" height="14">
<path d="M-7.25314 435.887H4.36665V448.166H-7.25314V435.887Z" fill="white"/>
</mask>
<g mask="url(#mask8_1_441)">
<path d="M-7.25314 447.647H4.14803V436.235H-7.25314V447.647Z" fill="#2E1B5B"/>
</g>
<mask id="mask9_1_441" style="mask-type:luminance" maskUnits="userSpaceOnUse" x="-8" y="448" width="13" height="14">
<path d="M-7.25314 448.933H4.36665V461.212H-7.25314V448.933Z" fill="white"/>
</mask>
<g mask="url(#mask9_1_441)">
<path d="M-7.25314 461.059H4.14803V449.647H-7.25314V461.059Z" fill="#2E1B5B"/>
</g>
<mask id="mask10_1_441" style="mask-type:luminance" maskUnits="userSpaceOnUse" x="-8" y="462" width="13" height="14">
<path d="M-7.25314 462.747H4.36665V475.025H-7.25314V462.747Z" fill="white"/>
</mask>
<g mask="url(#mask10_1_441)">
<path d="M-7.25314 474.471H4.14803V463.055H-7.25314V474.471Z" fill="#2E1B5B"/>
</g>
<mask id="mask11_1_441" style="mask-type:luminance" maskUnits="userSpaceOnUse" x="-8" y="475" width="13" height="14">
<path d="M-7.25314 475.793H4.36665V488.071H-7.25314V475.793Z" fill="white"/>
</mask>
<g mask="url(#mask11_1_441)">
<path d="M-7.25314 487.879H4.14803V476.467H-7.25314V487.879Z" fill="#2E1B5B"/>
</g>
<mask id="mask12_1_441" style="mask-type:luminance" maskUnits="userSpaceOnUse" x="-8" y="489" width="13" height="13">
<path d="M-7.25314 489.606H4.36665V501.884H-7.25314V489.606Z" fill="white"/>
</mask>
<g mask="url(#mask12_1_441)">
<path d="M-7.25314 501.291H4.14803V489.876H-7.25314V501.291Z" fill="#2E1B5B"/>
</g>
<mask id="mask13_1_441" style="mask-type:luminance" maskUnits="userSpaceOnUse" x="-8" y="502" width="13" height="13">
<path d="M-7.25314 502.985H4.30376V514.7H-7.25314V502.985Z" fill="white"/>
</mask>
<g mask="url(#mask13_1_441)">
<path d="M-7.25314 514.7H4.14803V503.287H-7.25314V514.7Z" fill="#2E1B5B"/>
</g>
<path d="M6.14258 286.726H17.5467V275.31H6.14258V286.726Z" fill="#2E1B5B"/>
<path d="M6.14258 340.366H17.5467V328.954H6.14258V340.366Z" fill="#2E1B5B"/>
<path d="M6.14258 367.186H17.5467V355.774H6.14258V367.186Z" fill="#2E1B5B"/>
<path d="M6.14258 380.595H17.5467V369.183H6.14258V380.595Z" fill="#2E1B5B"/>
<path d="M6.14258 394.007H17.5467V382.595H6.14258V394.007Z" fill="#2E1B5B"/>
<path d="M6.14258 407.418H17.5467V396.006H6.14258V407.418Z" fill="#2E1B5B"/>
<path d="M6.14258 434.239H17.5467V422.826H6.14258V434.239Z" fill="#2E1B5B"/>
<path d="M6.14258 447.647H17.5467V436.235H6.14258V447.647Z" fill="#2E1B5B"/>
<path d="M6.14258 461.059H17.5467V449.647H6.14258V461.059Z" fill="#2E1B5B"/>
<path d="M6.14258 474.471H17.5467V463.055H6.14258V474.471Z" fill="#2E1B5B"/>
<path d="M6.14258 487.879H17.5467V476.467H6.14258V487.879Z" fill="#2E1B5B"/>
<path d="M6.14258 501.291H17.5467V489.876H6.14258V501.291Z" fill="#2E1B5B"/>
<mask id="mask14_1_441" style="mask-type:luminance" maskUnits="userSpaceOnUse" x="5" y="502" width="13" height="13">
<path d="M5.89999 502.985H17.7384V514.7H5.89999V502.985Z" fill="white"/>
</mask>
<g mask="url(#mask14_1_441)">
<path d="M6.14258 514.7H17.5467V503.287H6.14258V514.7Z" fill="#2E1B5B"/>
</g>
<path d="M19.5413 313.546H30.9424V302.131H19.5413V313.546Z" fill="#2E1B5B"/>
<path d="M19.5413 340.366H30.9424V328.954H19.5413V340.366Z" fill="#2E1B5B"/>
<path d="M19.5413 407.418H30.9424V396.006H19.5413V407.418Z" fill="#2E1B5B"/>
<path d="M19.5413 420.827H30.9424V409.415H19.5413V420.827Z" fill="#2E1B5B"/>
<path d="M19.5413 461.059H30.9424V449.647H19.5413V461.059Z" fill="#2E1B5B"/>
<path d="M19.5413 487.879H30.9424V476.467H19.5413V487.879Z" fill="#2E1B5B"/>
<path d="M19.5413 501.291H30.9424V489.876H19.5413V501.291Z" fill="#2E1B5B"/>
<mask id="mask15_1_441" style="mask-type:luminance" maskUnits="userSpaceOnUse" x="19" y="502" width="13" height="13">
<path d="M19.2987 502.985H31.1701V514.7H19.2987V502.985Z" fill="white"/>
</mask>
<g mask="url(#mask15_1_441)">
<path d="M19.5413 514.7H30.9425V503.287H19.5413V514.7Z" fill="#2E1B5B"/>
</g>
<path d="M32.937 286.726H44.3411V275.31H32.937V286.726Z" fill="#2E1B5B"/>
<path d="M32.937 326.955H44.3411V315.542H32.937V326.955Z" fill="#2E1B5B"/>
<path d="M32.937 367.186H44.3411V355.774H32.937V367.186Z" fill="#2E1B5B"/>
<path d="M32.937 380.595H44.3411V369.183H32.937V380.595Z" fill="#2E1B5B"/>
<path d="M32.937 407.418H44.3411V396.006H32.937V407.418Z" fill="#2E1B5B"/>
<path d="M32.937 434.239H44.3411V422.826H32.937V434.239Z" fill="#2E1B5B"/>
<path d="M32.937 447.647H44.3411V436.235H32.937V447.647Z" fill="#2E1B5B"/>
<path d="M32.937 461.059H44.3411V449.647H32.937V461.059Z" fill="#2E1B5B"/>
<path d="M32.937 487.879H44.3411V476.467H32.937V487.879Z" fill="#2E1B5B"/>
<path d="M32.937 501.291H44.3411V489.876H32.937V501.291Z" fill="#2E1B5B"/>
<mask id="mask16_1_441" style="mask-type:luminance" maskUnits="userSpaceOnUse" x="32" y="502" width="13" height="13">
<path d="M32.7333 502.985H44.6017V514.7H32.7333V502.985Z" fill="white"/>
</mask>
<g mask="url(#mask16_1_441)">
<path d="M32.937 514.7H44.3411V503.287H32.937V514.7Z" fill="#2E1B5B"/>
</g>
<path d="M46.3357 300.134H57.7398V288.722H46.3357V300.134Z" fill="#2E1B5B"/>
<path d="M46.3357 326.955H57.7398V315.542H46.3357V326.955Z" fill="#2E1B5B"/>
<path d="M46.3357 340.366H57.7398V328.954H46.3357V340.366Z" fill="#2E1B5B"/>
<path d="M46.3357 353.775H57.7398V342.363H46.3357V353.775Z" fill="#2E1B5B"/>
<path d="M46.3357 367.186H57.7398V355.774H46.3357V367.186Z" fill="#2E1B5B"/>
<path d="M46.3357 380.595H57.7398V369.183H46.3357V380.595Z" fill="#2E1B5B"/>
<path d="M46.3357 394.007H57.7398V382.595H46.3357V394.007Z" fill="#2E1B5B"/>
<path d="M46.3357 407.418H57.7398V396.006H46.3357V407.418Z" fill="#2E1B5B"/>
<path d="M46.3357 420.827H57.7398V409.415H46.3357V420.827Z" fill="#2E1B5B"/>
<path d="M46.3357 434.239H57.7398V422.826H46.3357V434.239Z" fill="#2E1B5B"/>
<path d="M46.3357 447.647H57.7398V436.235H46.3357V447.647Z" fill="#2E1B5B"/>
<path d="M46.3357 461.059H57.7398V449.647H46.3357V461.059Z" fill="#2E1B5B"/>
<path d="M46.3357 474.471H57.7398V463.055H46.3357V474.471Z" fill="#2E1B5B"/>
<path d="M46.3357 487.879H57.7398V476.467H46.3357V487.879Z" fill="#2E1B5B"/>
<path d="M46.3357 501.291H57.7398V489.876H46.3357V501.291Z" fill="#2E1B5B"/>
<mask id="mask17_1_441" style="mask-type:luminance" maskUnits="userSpaceOnUse" x="46" y="502" width="13" height="13">
<path d="M46.165 502.985H58.0333V514.7H46.165V502.985Z" fill="white"/>
</mask>
<g mask="url(#mask17_1_441)">
<path d="M46.3357 514.7H57.7399V503.287H46.3357V514.7Z" fill="#2E1B5B"/>
</g>
<mask id="mask18_1_441" style="mask-type:luminance" maskUnits="userSpaceOnUse" x="59" y="261" width="13" height="13">
<path d="M59.5667 261.872H71.8333V273.964H59.5667V261.872Z" fill="white"/>
</mask>
<g mask="url(#mask18_1_441)">
<path d="M59.7343 273.314H71.1355V261.902H59.7343V273.314Z" fill="#2E1B5B"/>
</g>
<path d="M59.7344 300.134H71.1355V288.722H59.7344V300.134Z" fill="#2E1B5B"/>
<path d="M59.7344 353.775H71.1355V342.363H59.7344V353.775Z" fill="#2E1B5B"/>
<path d="M59.7344 394.007H71.1355V382.595H59.7344V394.007Z" fill="#2E1B5B"/>
<path d="M59.7344 420.827H71.1355V409.415H59.7344V420.827Z" fill="#2E1B5B"/>
<path d="M59.7344 434.239H71.1355V422.826H59.7344V434.239Z" fill="#2E1B5B"/>
<path d="M59.7344 461.059H71.1355V449.647H59.7344V461.059Z" fill="#2E1B5B"/>
<path d="M59.7344 487.879H71.1355V476.467H59.7344V487.879Z" fill="#2E1B5B"/>
<path d="M59.7344 501.291H71.1355V489.876H59.7344V501.291Z" fill="#2E1B5B"/>
<mask id="mask19_1_441" style="mask-type:luminance" maskUnits="userSpaceOnUse" x="59" y="502" width="13" height="13">
<path d="M59.5966 502.985H71.1565V514.7H59.5966V502.985Z" fill="white"/>
</mask>
<g mask="url(#mask19_1_441)">
<path d="M59.7344 514.7H71.1355V503.287H59.7344V514.7Z" fill="#2E1B5B"/>
</g>
<path d="M73.1301 326.955H84.5342V315.542H73.1301V326.955Z" fill="#2E1B5B"/>
<path d="M73.1301 340.366H84.5342V328.954H73.1301V340.366Z" fill="#2E1B5B"/>
<path d="M73.1301 367.186H84.5342V355.774H73.1301V367.186Z" fill="#2E1B5B"/>
<path d="M73.1301 394.007H84.5342V382.595H73.1301V394.007Z" fill="#2E1B5B"/>
<path d="M73.1301 407.418H84.5342V396.006H73.1301V407.418Z" fill="#2E1B5B"/>
<path d="M73.1301 434.239H84.5342V422.826H73.1301V434.239Z" fill="#2E1B5B"/>
<path d="M73.1301 461.059H84.5342V449.647H73.1301V461.059Z" fill="#2E1B5B"/>
<path d="M73.1301 474.471H84.5342V463.055H73.1301V474.471Z" fill="#2E1B5B"/>
<path d="M73.1301 501.291H84.5342V489.876H73.1301V501.291Z" fill="#2E1B5B"/>
<mask id="mask20_1_441" style="mask-type:luminance" maskUnits="userSpaceOnUse" x="73" y="502" width="12" height="13">
<path d="M73.0283 502.985H84.5882V514.7H73.0283V502.985Z" fill="white"/>
</mask>
<g mask="url(#mask20_1_441)">
<path d="M73.1301 514.7H84.5342V503.287H73.1301V514.7Z" fill="#2E1B5B"/>
</g>
<path d="M86.5288 286.726H97.9329V275.31H86.5288V286.726Z" fill="#2E1B5B"/>
<path d="M86.5288 313.546H97.9329V302.131H86.5288V313.546Z" fill="#2E1B5B"/>
<path d="M86.5288 326.955H97.9329V315.542H86.5288V326.955Z" fill="#2E1B5B"/>
<path d="M86.5288 340.366H97.9329V328.954H86.5288V340.366Z" fill="#2E1B5B"/>
<path d="M86.5288 380.595H97.9329V369.183H86.5288V380.595Z" fill="#2E1B5B"/>
<path d="M86.5288 394.007H97.9329V382.595H86.5288V394.007Z" fill="#2E1B5B"/>
<path d="M86.5288 420.827H97.9329V409.415H86.5288V420.827Z" fill="#2E1B5B"/>
<path d="M86.5288 461.059H97.9329V449.647H86.5288V461.059Z" fill="#2E1B5B"/>
<path d="M86.5288 474.471H97.9329V463.055H86.5288V474.471Z" fill="#2E1B5B"/>
<path d="M86.5288 487.879H97.9329V476.467H86.5288V487.879Z" fill="#2E1B5B"/>
<path d="M86.5288 501.291H97.9329V489.876H86.5288V501.291Z" fill="#2E1B5B"/>
<mask id="mask21_1_441" style="mask-type:luminance" maskUnits="userSpaceOnUse" x="86" y="502" width="13" height="13">
<path d="M86.4629 502.985H98.0198V514.7H86.4629V502.985Z" fill="white"/>
</mask>
<g mask="url(#mask21_1_441)">
<path d="M86.5288 514.7H97.9329V503.287H86.5288V514.7Z" fill="#2E1B5B"/>
</g>
<path d="M99.9275 286.726H111.329V275.31H99.9275V286.726Z" fill="#2E1B5B"/>
<path d="M99.9275 394.007H111.329V382.595H99.9275V394.007Z" fill="#2E1B5B"/>
<path d="M99.9275 407.418H111.329V396.006H99.9275V407.418Z" fill="#2E1B5B"/>
<path d="M99.9275 434.239H111.329V422.826H99.9275V434.239Z" fill="#2E1B5B"/>
<path d="M99.9275 447.647H111.329V436.235H99.9275V447.647Z" fill="#2E1B5B"/>
<path d="M99.9275 461.059H111.329V449.647H99.9275V461.059Z" fill="#2E1B5B"/>
<path d="M99.9275 501.291H111.329V489.876H99.9275V501.291Z" fill="#2E1B5B"/>
<mask id="mask22_1_441" style="mask-type:luminance" maskUnits="userSpaceOnUse" x="99" y="502" width="13" height="13">
<path d="M99.8945 502.985H111.454V514.7H99.8945V502.985Z" fill="white"/>
</mask>
<g mask="url(#mask22_1_441)">
<path d="M99.9275 514.7H111.329V503.287H99.9275V514.7Z" fill="#2E1B5B"/>
</g>
<path d="M113.323 300.134H124.727V288.722H113.323V300.134Z" fill="#2E1B5B"/>
<path d="M113.323 313.546H124.727V302.131H113.323V313.546Z" fill="#2E1B5B"/>
<path d="M113.323 326.955H124.727V315.542H113.323V326.955Z" fill="#2E1B5B"/>
<path d="M113.323 340.366H124.727V328.954H113.323V340.366Z" fill="#2E1B5B"/>
<path d="M113.323 353.775H124.727V342.363H113.323V353.775Z" fill="#2E1B5B"/>
<path d="M113.323 380.595H124.727V369.183H113.323V380.595Z" fill="#2E1B5B"/>
<path d="M113.323 407.418H124.727V396.006H113.323V407.418Z" fill="#2E1B5B"/>
<path d="M113.323 447.647H124.727V436.235H113.323V447.647Z" fill="#2E1B5B"/>
<path d="M113.323 474.471H124.727V463.055H113.323V474.471Z" fill="#2E1B5B"/>
<path d="M113.323 487.879H124.727V476.467H113.323V487.879Z" fill="#2E1B5B"/>
<path d="M113.323 501.291H124.727V489.876H113.323V501.291Z" fill="#2E1B5B"/>
<mask id="mask23_1_441" style="mask-type:luminance" maskUnits="userSpaceOnUse" x="113" y="502" width="12" height="13">
<path d="M113.233 502.985H124.733V514.7H113.233V502.985Z" fill="white"/>
</mask>
<g mask="url(#mask23_1_441)">
<path d="M113.323 514.7H124.727V503.287H113.323V514.7Z" fill="#2E1B5B"/>
</g>
<path d="M126.722 286.726H138.123V275.31H126.722V286.726Z" fill="#2E1B5B"/>
<path d="M126.722 353.775H138.123V342.363H126.722V353.775Z" fill="#2E1B5B"/>
<path d="M126.722 380.595H138.123V369.183H126.722V380.595Z" fill="#2E1B5B"/>
<path d="M126.722 420.827H138.123V409.415H126.722V420.827Z" fill="#2E1B5B"/>
<path d="M126.722 434.239H138.123V422.826H126.722V434.239Z" fill="#2E1B5B"/>
<path d="M126.722 461.059H138.123V449.647H126.722V461.059Z" fill="#2E1B5B"/>
<path d="M126.722 487.879H138.123V476.467H126.722V487.879Z" fill="#2E1B5B"/>
<path d="M126.722 501.291H138.123V489.876H126.722V501.291Z" fill="#2E1B5B"/>
<mask id="mask24_1_441" style="mask-type:luminance" maskUnits="userSpaceOnUse" x="126" y="502" width="13" height="13">
<path d="M126.446 502.985H138.318V514.7H126.446V502.985Z" fill="white"/>
</mask>
<g mask="url(#mask24_1_441)">
<path d="M126.722 514.7H138.123V503.287H126.722V514.7Z" fill="#2E1B5B"/>
</g>
<mask id="mask25_1_441" style="mask-type:luminance" maskUnits="userSpaceOnUse" x="140" y="261" width="12" height="13">
<path d="M140.067 261.872H151.567V273.964H140.067V261.872Z" fill="white"/>
</mask>
<g mask="url(#mask25_1_441)">
<path d="M140.117 273.314H151.521V261.902H140.117V273.314Z" fill="#2E1B5B"/>
</g>
<path d="M140.118 300.134H151.522V288.722H140.118V300.134Z" fill="#2E1B5B"/>
<path d="M140.118 326.955H151.522V315.542H140.118V326.955Z" fill="#2E1B5B"/>
<path d="M140.118 340.366H151.522V328.954H140.118V340.366Z" fill="#2E1B5B"/>
<path d="M140.118 353.775H151.522V342.363H140.118V353.775Z" fill="#2E1B5B"/>
<path d="M140.118 380.595H151.522V369.183H140.118V380.595Z" fill="#2E1B5B"/>
<path d="M140.118 394.007H151.522V382.595H140.118V394.007Z" fill="#2E1B5B"/>
<path d="M140.118 420.827H151.522V409.415H140.118V420.827Z" fill="#2E1B5B"/>
<path d="M140.118 434.239H151.522V422.826H140.118V434.239Z" fill="#2E1B5B"/>
<path d="M140.118 447.647H151.522V436.235H140.118V447.647Z" fill="#2E1B5B"/>
<path d="M140.118 474.471H151.522V463.055H140.118V474.471Z" fill="#2E1B5B"/>
<path d="M140.118 487.879H151.522V476.467H140.118V487.879Z" fill="#2E1B5B"/>
<path d="M140.118 501.291H151.522V489.876H140.118V501.291Z" fill="#2E1B5B"/>
<mask id="mask26_1_441" style="mask-type:luminance" maskUnits="userSpaceOnUse" x="140" y="502" width="12" height="13">
<path d="M140.067 502.985H151.567V514.7H140.067V502.985Z" fill="white"/>
</mask>
<g mask="url(#mask26_1_441)">
<path d="M140.118 514.7H151.522V503.287H140.118V514.7Z" fill="#2E1B5B"/>
</g>
<path d="M153.516 326.955H164.917V315.542H153.516V326.955Z" fill="#2E1B5B"/>
<path d="M153.516 340.366H164.917V328.954H153.516V340.366Z" fill="#2E1B5B"/>
<path d="M153.516 407.418H164.917V396.006H153.516V407.418Z" fill="#2E1B5B"/>
<path d="M153.516 420.827H164.917V409.415H153.516V420.827Z" fill="#2E1B5B"/>
<path d="M153.516 447.647H164.917V436.235H153.516V447.647Z" fill="#2E1B5B"/>
<path d="M153.516 461.059H164.917V449.647H153.516V461.059Z" fill="#2E1B5B"/>
<path d="M153.516 474.471H164.917V463.055H153.516V474.471Z" fill="#2E1B5B"/>
<path d="M153.516 501.291H164.917V489.876H153.516V501.291Z" fill="#2E1B5B"/>
<mask id="mask27_1_441" style="mask-type:luminance" maskUnits="userSpaceOnUse" x="153" y="502" width="13" height="13">
<path d="M153.313 502.985H165.184V514.7H153.313V502.985Z" fill="white"/>
</mask>
<g mask="url(#mask27_1_441)">
<path d="M153.516 514.7H164.917V503.287H153.516V514.7Z" fill="#2E1B5B"/>
</g>
<path d="M166.912 326.955H178.316V315.542H166.912V326.955Z" fill="#2E1B5B"/>
<path d="M166.912 353.775H178.316V342.363H166.912V353.775Z" fill="#2E1B5B"/>
<path d="M166.912 367.186H178.316V355.774H166.912V367.186Z" fill="#2E1B5B"/>
<path d="M166.912 394.007H178.316V382.595H166.912V394.007Z" fill="#2E1B5B"/>
<path d="M166.912 407.418H178.316V396.006H166.912V407.418Z" fill="#2E1B5B"/>
<path d="M166.912 434.239H178.316V422.826H166.912V434.239Z" fill="#2E1B5B"/>
<path d="M166.912 461.059H178.316V449.647H166.912V461.059Z" fill="#2E1B5B"/>
<path d="M166.912 474.471H178.316V463.055H166.912V474.471Z" fill="#2E1B5B"/>
<path d="M166.912 487.879H178.316V476.467H166.912V487.879Z" fill="#2E1B5B"/>
<path d="M166.912 501.291H178.316V489.876H166.912V501.291Z" fill="#2E1B5B"/>
<mask id="mask28_1_441" style="mask-type:luminance" maskUnits="userSpaceOnUse" x="166" y="502" width="13" height="13">
<path d="M166.9 502.985H178.4V514.7H166.9V502.985Z" fill="white"/>
</mask>
<g mask="url(#mask28_1_441)">
<path d="M166.912 514.7H178.316V503.287H166.912V514.7Z" fill="#2E1B5B"/>
</g>
<path d="M180.311 300.134H191.712V288.722H180.311V300.134Z" fill="#2E1B5B"/>
<path d="M180.311 313.546H191.712V302.131H180.311V313.546Z" fill="#2E1B5B"/>
<path d="M180.311 326.955H191.712V315.542H180.311V326.955Z" fill="#2E1B5B"/>
<path d="M180.311 367.186H191.712V355.774H180.311V367.186Z" fill="#2E1B5B"/>
<path d="M180.311 380.595H191.712V369.183H180.311V380.595Z" fill="#2E1B5B"/>
<path d="M180.311 407.418H191.712V396.006H180.311V407.418Z" fill="#2E1B5B"/>
<path d="M180.311 420.827H191.712V409.415H180.311V420.827Z" fill="#2E1B5B"/>
<path d="M180.311 434.239H191.712V422.826H180.311V434.239Z" fill="#2E1B5B"/>
<path d="M180.311 447.647H191.712V436.235H180.311V447.647Z" fill="#2E1B5B"/>
<path d="M180.311 487.879H191.712V476.467H180.311V487.879Z" fill="#2E1B5B"/>
<path d="M180.311 501.291H191.712V489.876H180.311V501.291Z" fill="#2E1B5B"/>
<mask id="mask29_1_441" style="mask-type:luminance" maskUnits="userSpaceOnUse" x="180" y="502" width="12" height="13">
<path d="M180.179 502.985H191.736V514.7H180.179V502.985Z" fill="white"/>
</mask>
<g mask="url(#mask29_1_441)">
<path d="M180.311 514.7H191.712V503.287H180.311V514.7Z" fill="#2E1B5B"/>
</g>
<path d="M193.709 326.955H205.111V315.542H193.709V326.955Z" fill="#2E1B5B"/>
<path d="M193.709 340.366H205.111V328.954H193.709V340.366Z" fill="#2E1B5B"/>
<path d="M193.709 353.775H205.111V342.363H193.709V353.775Z" fill="#2E1B5B"/>
<path d="M193.709 380.595H205.111V369.183H193.709V380.595Z" fill="#2E1B5B"/>
<path d="M193.709 394.007H205.111V382.595H193.709V394.007Z" fill="#2E1B5B"/>
<path d="M193.709 447.647H205.111V436.235H193.709V447.647Z" fill="#2E1B5B"/>
<path d="M193.709 461.059H205.111V449.647H193.709V461.059Z" fill="#2E1B5B"/>
<path d="M193.709 474.471H205.111V463.055H193.709V474.471Z" fill="#2E1B5B"/>
<path d="M193.709 487.879H205.111V476.467H193.709V487.879Z" fill="#2E1B5B"/>
<path d="M193.709 501.291H205.111V489.876H193.709V501.291Z" fill="#2E1B5B"/>
<mask id="mask30_1_441" style="mask-type:luminance" maskUnits="userSpaceOnUse" x="193" y="502" width="13" height="13">
<path d="M193.611 502.985H205.167V514.7H193.611V502.985Z" fill="white"/>
</mask>
<g mask="url(#mask30_1_441)">
<path d="M193.709 514.7H205.111V503.287H193.709V514.7Z" fill="#2E1B5B"/>
</g>
<path d="M207.105 286.726H218.506V275.31H207.105V286.726Z" fill="#2E1B5B"/>
<path d="M207.105 313.546H218.506V302.131H207.105V313.546Z" fill="#2E1B5B"/>
<path d="M207.105 340.366H218.506V328.954H207.105V340.366Z" fill="#2E1B5B"/>
<path d="M207.105 353.775H218.506V342.363H207.105V353.775Z" fill="#2E1B5B"/>
<path d="M207.105 367.186H218.506V355.774H207.105V367.186Z" fill="#2E1B5B"/>
<path d="M207.105 394.007H218.506V382.595H207.105V394.007Z" fill="#2E1B5B"/>
<path d="M207.105 407.418H218.506V396.006H207.105V407.418Z" fill="#2E1B5B"/>
<path d="M207.105 420.827H218.506V409.415H207.105V420.827Z" fill="#2E1B5B"/>
<path d="M207.105 434.239H218.506V422.826H207.105V434.239Z" fill="#2E1B5B"/>
<path d="M207.105 447.647H218.506V436.235H207.105V447.647Z" fill="#2E1B5B"/>
<path d="M207.105 474.471H218.506V463.055H207.105V474.471Z" fill="#2E1B5B"/>
<path d="M207.105 487.879H218.506V476.467H207.105V487.879Z" fill="#2E1B5B"/>
<path d="M207.105 501.291H218.506V489.876H207.105V501.291Z" fill="#2E1B5B"/>
<mask id="mask31_1_441" style="mask-type:luminance" maskUnits="userSpaceOnUse" x="207" y="502" width="12" height="13">
<path d="M207.042 502.985H218.602V514.7H207.042V502.985Z" fill="white"/>
</mask>
<g mask="url(#mask31_1_441)">
<path d="M207.105 514.7H218.506V503.287H207.105V514.7Z" fill="#2E1B5B"/>
</g>
<path d="M220.504 367.186H231.905V355.774H220.504V367.186Z" fill="#2E1B5B"/>
<path d="M220.504 380.595H231.905V369.183H220.504V380.595Z" fill="#2E1B5B"/>
<path d="M220.504 420.827H231.905V409.415H220.504V420.827Z" fill="#2E1B5B"/>
<path d="M220.504 434.239H231.905V422.826H220.504V434.239Z" fill="#2E1B5B"/>
<path d="M220.504 461.059H231.905V449.647H220.504V461.059Z" fill="#2E1B5B"/>
<path d="M220.504 501.291H231.905V489.876H220.504V501.291Z" fill="#2E1B5B"/>
<mask id="mask32_1_441" style="mask-type:luminance" maskUnits="userSpaceOnUse" x="220" y="502" width="13" height="13">
<path d="M220.477 502.985H232.034V514.7H220.477V502.985Z" fill="white"/>
</mask>
<g mask="url(#mask32_1_441)">
<path d="M220.504 514.7H231.905V503.287H220.504V514.7Z" fill="#2E1B5B"/>
</g>
<path d="M233.902 313.546H245.304V302.131H233.902V313.546Z" fill="#2E1B5B"/>
<path d="M233.902 340.366H245.304V328.954H233.902V340.366Z" fill="#2E1B5B"/>
<path d="M233.902 353.775H245.304V342.363H233.902V353.775Z" fill="#2E1B5B"/>
<path d="M233.902 407.418H245.304V396.006H233.902V407.418Z" fill="#2E1B5B"/>
<path d="M233.902 420.827H245.304V409.415H233.902V420.827Z" fill="#2E1B5B"/>
<path d="M233.902 447.647H245.304V436.235H233.902V447.647Z" fill="#2E1B5B"/>
<path d="M233.902 461.059H245.304V449.647H233.902V461.059Z" fill="#2E1B5B"/>
<path d="M233.902 474.471H245.304V463.055H233.902V474.471Z" fill="#2E1B5B"/>
<path d="M233.902 487.879H245.304V476.467H233.902V487.879Z" fill="#2E1B5B"/>
<path d="M233.902 501.291H245.304V489.876H233.902V501.291Z" fill="#2E1B5B"/>
<mask id="mask33_1_441" style="mask-type:luminance" maskUnits="userSpaceOnUse" x="233" y="502" width="13" height="13">
<path d="M233.6 502.985H245.465V514.7H233.6V502.985Z" fill="white"/>
</mask>
<g mask="url(#mask33_1_441)">
<path d="M233.902 514.7H245.304V503.287H233.902V514.7Z" fill="#2E1B5B"/>
</g>
<path d="M247.298 286.726H258.699V275.31H247.298V286.726Z" fill="#2E1B5B"/>
<path d="M247.298 313.546H258.699V302.131H247.298V313.546Z" fill="#2E1B5B"/>
<path d="M247.298 380.595H258.699V369.183H247.298V380.595Z" fill="#2E1B5B"/>
<path d="M247.298 394.007H258.699V382.595H247.298V394.007Z" fill="#2E1B5B"/>
<path d="M247.298 407.418H258.699V396.006H247.298V407.418Z" fill="#2E1B5B"/>
<path d="M247.298 434.239H258.699V422.826H247.298V434.239Z" fill="#2E1B5B"/>
<path d="M247.298 461.059H258.699V449.647H247.298V461.059Z" fill="#2E1B5B"/>
<path d="M247.298 474.471H258.699V463.055H247.298V474.471Z" fill="#2E1B5B"/>
<path d="M247.298 487.879H258.699V476.467H247.298V487.879Z" fill="#2E1B5B"/>
<path d="M247.298 501.291H258.699V489.876H247.298V501.291Z" fill="#2E1B5B"/>
<mask id="mask34_1_441" style="mask-type:luminance" maskUnits="userSpaceOnUse" x="247" y="502" width="12" height="13">
<path d="M247.029 502.985H258.9V514.7H247.029V502.985Z" fill="white"/>
</mask>
<g mask="url(#mask34_1_441)">
<path d="M247.298 514.7H258.699V503.287H247.298V514.7Z" fill="#2E1B5B"/>
</g>
<path d="M260.694 313.546H272.098V302.131H260.694V313.546Z" fill="#2E1B5B"/>
<path d="M260.694 340.366H272.098V328.954H260.694V340.366Z" fill="#2E1B5B"/>
<path d="M260.694 353.775H272.098V342.363H260.694V353.775Z" fill="#2E1B5B"/>
<path d="M260.694 367.186H272.098V355.774H260.694V367.186Z" fill="#2E1B5B"/>
<path d="M260.694 394.007H272.098V382.595H260.694V394.007Z" fill="#2E1B5B"/>
<path d="M260.694 420.827H272.098V409.415H260.694V420.827Z" fill="#2E1B5B"/>
<path d="M260.694 434.239H272.098V422.826H260.694V434.239Z" fill="#2E1B5B"/>
<path d="M260.694 447.647H272.098V436.235H260.694V447.647Z" fill="#2E1B5B"/>
<path d="M260.694 461.059H272.098V449.647H260.694V461.059Z" fill="#2E1B5B"/>
<path d="M260.694 474.471H272.098V463.055H260.694V474.471Z" fill="#2E1B5B"/>
<path d="M260.694 487.879H272.098V476.467H260.694V487.879Z" fill="#2E1B5B"/>
<mask id="mask35_1_441" style="mask-type:luminance" maskUnits="userSpaceOnUse" x="260" y="502" width="13" height="13">
<path d="M260.46 502.985H272.332V514.7H260.46V502.985Z" fill="white"/>
</mask>
<g mask="url(#mask35_1_441)">
<path d="M260.694 514.7H272.098V503.287H260.694V514.7Z" fill="#2E1B5B"/>
</g>
<path d="M274.093 326.955H285.494V315.542H274.093V326.955Z" fill="#2E1B5B"/>
<path d="M274.093 353.775H285.494V342.363H274.093V353.775Z" fill="#2E1B5B"/>
<path d="M274.093 394.007H285.494V382.595H274.093V394.007Z" fill="#2E1B5B"/>
<path d="M274.093 407.418H285.494V396.006H274.093V407.418Z" fill="#2E1B5B"/>
<path d="M274.093 434.239H285.494V422.826H274.093V434.239Z" fill="#2E1B5B"/>
<path d="M274.093 461.059H285.494V449.647H274.093V461.059Z" fill="#2E1B5B"/>
<path d="M274.093 474.471H285.494V463.055H274.093V474.471Z" fill="#2E1B5B"/>
<path d="M274.093 487.879H285.494V476.467H274.093V487.879Z" fill="#2E1B5B"/>
<path d="M274.093 501.291H285.494V489.876H274.093V501.291Z" fill="#2E1B5B"/>
<mask id="mask36_1_441" style="mask-type:luminance" maskUnits="userSpaceOnUse" x="273" y="502" width="13" height="13">
<path d="M273.895 502.985H285.733V514.7H273.895V502.985Z" fill="white"/>
</mask>
<g mask="url(#mask36_1_441)">
<path d="M274.093 514.7H285.494V503.287H274.093V514.7Z" fill="#2E1B5B"/>
</g>
<path d="M287.488 286.726H298.892V275.31H287.488V286.726Z" fill="#2E1B5B"/>
<path d="M287.488 353.775H298.892V342.363H287.488V353.775Z" fill="#2E1B5B"/>
<path d="M287.488 380.595H298.892V369.183H287.488V380.595Z" fill="#2E1B5B"/>
<path d="M287.488 394.007H298.892V382.595H287.488V394.007Z" fill="#2E1B5B"/>
<path d="M287.488 420.827H298.892V409.415H287.488V420.827Z" fill="#2E1B5B"/>
<path d="M287.488 434.239H298.892V422.826H287.488V434.239Z" fill="#2E1B5B"/>
<path d="M287.488 447.647H298.892V436.235H287.488V447.647Z" fill="#2E1B5B"/>
<path d="M287.488 474.471H298.892V463.055H287.488V474.471Z" fill="#2E1B5B"/>
<path d="M287.488 487.879H298.892V476.467H287.488V487.879Z" fill="#2E1B5B"/>
<path d="M287.488 501.291H298.892V489.876H287.488V501.291Z" fill="#2E1B5B"/>
<mask id="mask37_1_441" style="mask-type:luminance" maskUnits="userSpaceOnUse" x="287" y="502" width="13" height="13">
<path d="M287.327 502.985H299.198V514.7H287.327V502.985Z" fill="white"/>
</mask>
<g mask="url(#mask37_1_441)">
<path d="M287.488 514.7H298.892V503.287H287.488V514.7Z" fill="#2E1B5B"/>
</g>
<path d="M300.887 300.134H312.288V288.722H300.887V300.134Z" fill="#2E1B5B"/>
<path d="M300.887 313.546H312.288V302.131H300.887V313.546Z" fill="#2E1B5B"/>
<path d="M300.887 353.775H312.288V342.363H300.887V353.775Z" fill="#2E1B5B"/>
<path d="M300.887 407.418H312.288V396.006H300.887V407.418Z" fill="#2E1B5B"/>
<path d="M300.887 420.827H312.288V409.415H300.887V420.827Z" fill="#2E1B5B"/>
<path d="M300.887 447.647H312.288V436.235H300.887V447.647Z" fill="#2E1B5B"/>
<path d="M300.887 461.059H312.288V449.647H300.887V461.059Z" fill="#2E1B5B"/>
<path d="M300.887 474.471H312.288V463.055H300.887V474.471Z" fill="#2E1B5B"/>
<path d="M300.887 487.879H312.288V476.467H300.887V487.879Z" fill="#2E1B5B"/>
<path d="M300.887 501.291H312.288V489.876H300.887V501.291Z" fill="#2E1B5B"/>
<mask id="mask38_1_441" style="mask-type:luminance" maskUnits="userSpaceOnUse" x="300" y="502" width="13" height="13">
<path d="M300.758 502.985H312.318V514.7H300.758V502.985Z" fill="white"/>
</mask>
<g mask="url(#mask38_1_441)">
<path d="M300.887 514.7H312.288V503.287H300.887V514.7Z" fill="#2E1B5B"/>
</g>
<path d="M314.286 286.726H325.687V275.31H314.286V286.726Z" fill="#2E1B5B"/>
<path d="M314.286 300.134H325.687V288.722H314.286V300.134Z" fill="#2E1B5B"/>
<path d="M314.286 326.955H325.687V315.542H314.286V326.955Z" fill="#2E1B5B"/>
<path d="M314.286 340.366H325.687V328.954H314.286V340.366Z" fill="#2E1B5B"/>
<path d="M314.286 367.186H325.687V355.774H314.286V367.186Z" fill="#2E1B5B"/>
<path d="M314.286 394.007H325.687V382.595H314.286V394.007Z" fill="#2E1B5B"/>
<path d="M314.286 447.647H325.687V436.235H314.286V447.647Z" fill="#2E1B5B"/>
<path d="M314.286 461.059H325.687V449.647H314.286V461.059Z" fill="#2E1B5B"/>
<path d="M314.286 474.471H325.687V463.055H314.286V474.471Z" fill="#2E1B5B"/>
<path d="M314.286 487.879H325.687V476.467H314.286V487.879Z" fill="#2E1B5B"/>
<path d="M314.286 501.291H325.687V489.876H314.286V501.291Z" fill="#2E1B5B"/>
<mask id="mask39_1_441" style="mask-type:luminance" maskUnits="userSpaceOnUse" x="314" y="502" width="12" height="13">
<path d="M314.193 502.985H325.75V514.7H314.193V502.985Z" fill="white"/>
</mask>
<g mask="url(#mask39_1_441)">
<path d="M314.286 514.7H325.687V503.287H314.286V514.7Z" fill="#2E1B5B"/>
</g>
<path d="M327.684 300.134H339.086V288.722H327.684V300.134Z" fill="#2E1B5B"/>
<path d="M327.684 340.366H339.086V328.954H327.684V340.366Z" fill="#2E1B5B"/>
<path d="M327.684 367.186H339.086V355.774H327.684V367.186Z" fill="#2E1B5B"/>
<path d="M327.684 394.007H339.086V382.595H327.684V394.007Z" fill="#2E1B5B"/>
<path d="M327.684 407.418H339.086V396.006H327.684V407.418Z" fill="#2E1B5B"/>
<path d="M327.684 420.827H339.086V409.415H327.684V420.827Z" fill="#2E1B5B"/>
<path d="M327.684 434.239H339.086V422.826H327.684V434.239Z" fill="#2E1B5B"/>
<path d="M327.684 461.059H339.086V449.647H327.684V461.059Z" fill="#2E1B5B"/>
<path d="M327.684 474.471H339.086V463.055H327.684V474.471Z" fill="#2E1B5B"/>
<path d="M327.684 487.879H339.086V476.467H327.684V487.879Z" fill="#2E1B5B"/>
<mask id="mask40_1_441" style="mask-type:luminance" maskUnits="userSpaceOnUse" x="327" y="502" width="13" height="13">
<path d="M327.625 502.985H339.181V514.7H327.625V502.985Z" fill="white"/>
</mask>
<g mask="url(#mask40_1_441)">
<path d="M327.684 514.7H339.086V503.287H327.684V514.7Z" fill="#2E1B5B"/>
</g>
<mask id="mask41_1_441" style="mask-type:luminance" maskUnits="userSpaceOnUse" x="340" y="261" width="14" height="13">
<path d="M340.933 261.872H353.2V273.964H340.933V261.872Z" fill="white"/>
</mask>
<g mask="url(#mask41_1_441)">
<path d="M341.08 273.314H352.484V261.902H341.08V273.314Z" fill="#2E1B5B"/>
</g>
<path d="M341.08 313.546H352.484V302.131H341.08V313.546Z" fill="#2E1B5B"/>
<path d="M341.08 326.955H352.484V315.542H341.08V326.955Z" fill="#2E1B5B"/>
<path d="M341.08 380.595H352.484V369.183H341.08V380.595Z" fill="#2E1B5B"/>
<path d="M341.08 394.007H352.484V382.595H341.08V394.007Z" fill="#2E1B5B"/>
<path d="M341.08 420.827H352.484V409.415H341.08V420.827Z" fill="#2E1B5B"/>
<path d="M341.08 434.239H352.484V422.826H341.08V434.239Z" fill="#2E1B5B"/>
<path d="M341.08 461.059H352.484V449.647H341.08V461.059Z" fill="#2E1B5B"/>
<path d="M341.08 474.471H352.484V463.055H341.08V474.471Z" fill="#2E1B5B"/>
<path d="M341.08 487.879H352.484V476.467H341.08V487.879Z" fill="#2E1B5B"/>
<path d="M341.08 501.291H352.484V489.876H341.08V501.291Z" fill="#2E1B5B"/>
<mask id="mask42_1_441" style="mask-type:luminance" maskUnits="userSpaceOnUse" x="341" y="502" width="12" height="13">
<path d="M341.056 502.985H352.616V514.7H341.056V502.985Z" fill="white"/>
</mask>
<g mask="url(#mask42_1_441)">
<path d="M341.08 514.7H352.484V503.287H341.08V514.7Z" fill="#2E1B5B"/>
</g>
<path d="M354.476 286.726H365.88V275.31H354.476V286.726Z" fill="#2E1B5B"/>
<path d="M354.476 300.134H365.88V288.722H354.476V300.134Z" fill="#2E1B5B"/>
<path d="M354.476 340.366H365.88V328.954H354.476V340.366Z" fill="#2E1B5B"/>
<path d="M354.476 367.186H365.88V355.774H354.476V367.186Z" fill="#2E1B5B"/>
<path d="M354.476 394.007H365.88V382.595H354.476V394.007Z" fill="#2E1B5B"/>
<path d="M354.476 434.239H365.88V422.826H354.476V434.239Z" fill="#2E1B5B"/>
<path d="M354.476 447.647H365.88V436.235H354.476V447.647Z" fill="#2E1B5B"/>
<path d="M354.476 461.059H365.88V449.647H354.476V461.059Z" fill="#2E1B5B"/>
<path d="M354.476 474.471H365.88V463.055H354.476V474.471Z" fill="#2E1B5B"/>
<path d="M354.476 487.879H365.88V476.467H354.476V487.879Z" fill="#2E1B5B"/>
<path d="M354.476 501.291H365.88V489.876H354.476V501.291Z" fill="#2E1B5B"/>
<mask id="mask43_1_441" style="mask-type:luminance" maskUnits="userSpaceOnUse" x="354" y="502" width="13" height="13">
<path d="M354.176 502.985H366.048V514.7H354.176V502.985Z" fill="white"/>
</mask>
<g mask="url(#mask43_1_441)">
<path d="M354.476 514.7H365.88V503.287H354.476V514.7Z" fill="#2E1B5B"/>
</g>
<mask id="mask44_1_441" style="mask-type:luminance" maskUnits="userSpaceOnUse" x="367" y="261" width="14" height="13">
<path d="M367.767 261.872H380.033V273.964H367.767V261.872Z" fill="white"/>
</mask>
<g mask="url(#mask44_1_441)">
<path d="M367.874 273.314H379.279V261.902H367.874V273.314Z" fill="#2E1B5B"/>
</g>
<path d="M367.875 313.546H379.279V302.131H367.875V313.546Z" fill="#2E1B5B"/>
<path d="M367.875 340.366H379.279V328.954H367.875V340.366Z" fill="#2E1B5B"/>
<path d="M367.875 353.775H379.279V342.363H367.875V353.775Z" fill="#2E1B5B"/>
<path d="M367.875 367.186H379.279V355.774H367.875V367.186Z" fill="#2E1B5B"/>
<path d="M367.875 380.595H379.279V369.183H367.875V380.595Z" fill="#2E1B5B"/>
<path d="M367.875 394.007H379.279V382.595H367.875V394.007Z" fill="#2E1B5B"/>
<path d="M367.875 407.418H379.279V396.006H367.875V407.418Z" fill="#2E1B5B"/>
<path d="M367.875 420.827H379.279V409.415H367.875V420.827Z" fill="#2E1B5B"/>
<path d="M367.875 447.647H379.279V436.235H367.875V447.647Z" fill="#2E1B5B"/>
<path d="M367.875 474.471H379.279V463.055H367.875V474.471Z" fill="#2E1B5B"/>
<path d="M367.875 487.879H379.279V476.467H367.875V487.879Z" fill="#2E1B5B"/>
<path d="M367.875 501.291H379.279V489.876H367.875V501.291Z" fill="#2E1B5B"/>
<mask id="mask45_1_441" style="mask-type:luminance" maskUnits="userSpaceOnUse" x="367" y="502" width="13" height="13">
<path d="M367.767 502.985H379.479V514.7H367.767V502.985Z" fill="white"/>
</mask>
<g mask="url(#mask45_1_441)">
<path d="M367.874 514.7H379.279V503.287H367.874V514.7Z" fill="#2E1B5B"/>
</g>
<mask id="mask46_1_441" style="mask-type:luminance" maskUnits="userSpaceOnUse" x="380" y="261" width="14" height="13">
<path d="M380.8 261.872H393.067V273.964H380.8V261.872Z" fill="white"/>
</mask>
<g mask="url(#mask46_1_441)">
<path d="M381.273 273.314H392.674V261.902H381.273V273.314Z" fill="#2E1B5B"/>
</g>
<path d="M381.273 286.726H392.674V275.31H381.273V286.726Z" fill="#2E1B5B"/>
<path d="M381.273 340.366H392.674V328.954H381.273V340.366Z" fill="#2E1B5B"/>
<path d="M381.273 407.418H392.674V396.006H381.273V407.418Z" fill="#2E1B5B"/>
<path d="M381.273 420.827H392.674V409.415H381.273V420.827Z" fill="#2E1B5B"/>
<path d="M381.273 434.239H392.674V422.826H381.273V434.239Z" fill="#2E1B5B"/>
<path d="M381.273 447.647H392.674V436.235H381.273V447.647Z" fill="#2E1B5B"/>
<path d="M381.273 461.059H392.674V449.647H381.273V461.059Z" fill="#2E1B5B"/>
<path d="M381.273 474.471H392.674V463.055H381.273V474.471Z" fill="#2E1B5B"/>
<path d="M381.273 487.879H392.674V476.467H381.273V487.879Z" fill="#2E1B5B"/>
<path d="M381.273 501.291H392.674V489.876H381.273V501.291Z" fill="#2E1B5B"/>
<mask id="mask47_1_441" style="mask-type:luminance" maskUnits="userSpaceOnUse" x="381" y="502" width="12" height="13">
<path d="M381.043 502.985H392.914V514.7H381.043V502.985Z" fill="white"/>
</mask>
<g mask="url(#mask47_1_441)">
<path d="M381.273 514.7H392.674V503.287H381.273V514.7Z" fill="#2E1B5B"/>
</g>
<path d="M394.672 300.134H406.073V288.722H394.672V300.134Z" fill="#2E1B5B"/>
<path d="M394.672 326.955H406.073V315.542H394.672V326.955Z" fill="#2E1B5B"/>
<path d="M394.672 353.775H406.073V342.363H394.672V353.775Z" fill="#2E1B5B"/>
<path d="M394.672 367.186H406.073V355.774H394.672V367.186Z" fill="#2E1B5B"/>
<path d="M394.672 394.007H406.073V382.595H394.672V394.007Z" fill="#2E1B5B"/>
<path d="M394.672 420.827H406.073V409.415H394.672V420.827Z" fill="#2E1B5B"/>
<path d="M394.672 434.239H406.073V422.826H394.672V434.239Z" fill="#2E1B5B"/>
<path d="M394.672 447.647H406.073V436.235H394.672V447.647Z" fill="#2E1B5B"/>
<path d="M394.672 461.059H406.073V449.647H394.672V461.059Z" fill="#2E1B5B"/>
<path d="M394.672 474.471H406.073V463.055H394.672V474.471Z" fill="#2E1B5B"/>
<path d="M394.672 487.879H406.073V476.467H394.672V487.879Z" fill="#2E1B5B"/>
<mask id="mask48_1_441" style="mask-type:luminance" maskUnits="userSpaceOnUse" x="394" y="502" width="13" height="13">
<path d="M394.6 502.985H406.1V514.7H394.6V502.985Z" fill="white"/>
</mask>
<g mask="url(#mask48_1_441)">
<path d="M394.672 514.7H406.073V503.287H394.672V514.7Z" fill="#2E1B5B"/>
</g>
<path d="M408.068 326.955H419.469V315.542H408.068V326.955Z" fill="#2E1B5B"/>
<path d="M408.068 353.775H419.469V342.363H408.068V353.775Z" fill="#2E1B5B"/>
<path d="M408.068 367.186H419.469V355.774H408.068V367.186Z" fill="#2E1B5B"/>
<path d="M408.068 380.595H419.469V369.183H408.068V380.595Z" fill="#2E1B5B"/>
<path d="M408.068 394.007H419.469V382.595H408.068V394.007Z" fill="#2E1B5B"/>
<path d="M408.068 407.418H419.469V396.006H408.068V407.418Z" fill="#2E1B5B"/>
<path d="M408.068 434.239H419.469V422.826H408.068V434.239Z" fill="#2E1B5B"/>
<path d="M408.068 447.647H419.469V436.235H408.068V447.647Z" fill="#2E1B5B"/>
<path d="M408.068 461.059H419.469V449.647H408.068V461.059Z" fill="#2E1B5B"/>
<path d="M408.068 487.879H419.469V476.467H408.068V487.879Z" fill="#2E1B5B"/>
<path d="M408.068 501.291H419.469V489.876H408.068V501.291Z" fill="#2E1B5B"/>
<mask id="mask49_1_441" style="mask-type:luminance" maskUnits="userSpaceOnUse" x="407" y="502" width="13" height="13">
<path d="M407.906 502.985H419.777V514.7H407.906V502.985Z" fill="white"/>
</mask>
<g mask="url(#mask49_1_441)">
<path d="M408.068 514.7H419.469V503.287H408.068V514.7Z" fill="#2E1B5B"/>
</g>
<path d="M421.463 313.546H432.867V302.131H421.463V313.546Z" fill="#2E1B5B"/>
<path d="M421.463 394.007H432.867V382.595H421.463V394.007Z" fill="#2E1B5B"/>
<path d="M421.463 420.827H432.867V409.415H421.463V420.827Z" fill="#2E1B5B"/>
<path d="M421.463 447.647H432.867V436.235H421.463V447.647Z" fill="#2E1B5B"/>
<path d="M421.463 461.059H432.867V449.647H421.463V461.059Z" fill="#2E1B5B"/>
<path d="M421.463 474.471H432.867V463.055H421.463V474.471Z" fill="#2E1B5B"/>
<path d="M421.463 487.879H432.867V476.467H421.463V487.879Z" fill="#2E1B5B"/>
<path d="M421.463 501.291H432.867V489.876H421.463V501.291Z" fill="#2E1B5B"/>
<mask id="mask50_1_441" style="mask-type:luminance" maskUnits="userSpaceOnUse" x="421" y="502" width="12" height="13">
<path d="M421.433 502.985H432.897V514.7H421.433V502.985Z" fill="white"/>
</mask>
<g mask="url(#mask50_1_441)">
<path d="M421.463 514.7H432.867V503.287H421.463V514.7Z" fill="#2E1B5B"/>
</g>
<path d="M434.862 313.546H446.263V302.131H434.862V313.546Z" fill="#2E1B5B"/>
<path d="M434.862 367.186H446.263V355.774H434.862V367.186Z" fill="#2E1B5B"/>
<path d="M434.862 380.595H446.263V369.183H434.862V380.595Z" fill="#2E1B5B"/>
<path d="M434.862 420.827H446.263V409.415H434.862V420.827Z" fill="#2E1B5B"/>
<path d="M434.862 447.647H446.263V436.235H434.862V447.647Z" fill="#2E1B5B"/>
<path d="M434.862 461.059H446.263V449.647H434.862V461.059Z" fill="#2E1B5B"/>
<path d="M434.862 474.471H446.263V463.055H434.862V474.471Z" fill="#2E1B5B"/>
<path d="M434.862 487.879H446.263V476.467H434.862V487.879Z" fill="#2E1B5B"/>
<path d="M434.862 501.291H446.263V489.876H434.862V501.291Z" fill="#2E1B5B"/>
<mask id="mask51_1_441" style="mask-type:luminance" maskUnits="userSpaceOnUse" x="434" y="502" width="13" height="13">
<path d="M434.772 502.985H446.329V514.7H434.772V502.985Z" fill="white"/>
</mask>
<g mask="url(#mask51_1_441)">
<path d="M434.862 514.7H446.263V503.287H434.862V514.7Z" fill="#2E1B5B"/>
</g>
<path d="M448.261 300.134H459.662V288.722H448.261V300.134Z" fill="#2E1B5B"/>
<path d="M448.261 313.546H459.662V302.131H448.261V313.546Z" fill="#2E1B5B"/>
<path d="M448.261 340.366H459.662V328.954H448.261V340.366Z" fill="#2E1B5B"/>
<path d="M448.261 353.775H459.662V342.363H448.261V353.775Z" fill="#2E1B5B"/>
<path d="M448.261 380.595H459.662V369.183H448.261V380.595Z" fill="#2E1B5B"/>
<path d="M448.261 447.647H459.662V436.235H448.261V447.647Z" fill="#2E1B5B"/>
<path d="M448.261 474.471H459.662V463.055H448.261V474.471Z" fill="#2E1B5B"/>
<path d="M448.261 501.291H459.662V489.876H448.261V501.291Z" fill="#2E1B5B"/>
<mask id="mask52_1_441" style="mask-type:luminance" maskUnits="userSpaceOnUse" x="448" y="502" width="12" height="13">
<path d="M448.204 502.985H459.764V514.7H448.204V502.985Z" fill="white"/>
</mask>
<g mask="url(#mask52_1_441)">
<path d="M448.261 514.7H459.662V503.287H448.261V514.7Z" fill="#2E1B5B"/>
</g>
<path d="M461.656 313.546H473.058V302.131H461.656V313.546Z" fill="#2E1B5B"/>
<path d="M461.656 367.186H473.058V355.774H461.656V367.186Z" fill="#2E1B5B"/>
<path d="M461.656 394.007H473.058V382.595H461.656V394.007Z" fill="#2E1B5B"/>
<path d="M461.656 407.418H473.058V396.006H461.656V407.418Z" fill="#2E1B5B"/>
<path d="M461.656 420.827H473.058V409.415H461.656V420.827Z" fill="#2E1B5B"/>
<path d="M461.656 447.647H473.058V436.235H461.656V447.647Z" fill="#2E1B5B"/>
<path d="M461.656 461.059H473.058V449.647H461.656V461.059Z" fill="#2E1B5B"/>
<path d="M461.656 474.471H473.058V463.055H461.656V474.471Z" fill="#2E1B5B"/>
<path d="M461.656 501.291H473.058V489.876H461.656V501.291Z" fill="#2E1B5B"/>
<mask id="mask53_1_441" style="mask-type:luminance" maskUnits="userSpaceOnUse" x="461" y="502" width="13" height="13">
<path d="M461.638 502.985H473.195V514.7H461.638V502.985Z" fill="white"/>
</mask>
<g mask="url(#mask53_1_441)">
<path d="M461.656 514.7H473.058V503.287H461.656V514.7Z" fill="#2E1B5B"/>
</g>
<path d="M475.055 326.955H486.456V315.542H475.055V326.955Z" fill="#2E1B5B"/>
<path d="M475.055 340.366H486.456V328.954H475.055V340.366Z" fill="#2E1B5B"/>
<path d="M475.055 367.186H486.456V355.774H475.055V367.186Z" fill="#2E1B5B"/>
<path d="M475.055 380.595H486.456V369.183H475.055V380.595Z" fill="#2E1B5B"/>
<path d="M475.055 434.239H486.456V422.826H475.055V434.239Z" fill="#2E1B5B"/>
<path d="M475.055 474.471H486.456V463.055H475.055V474.471Z" fill="#2E1B5B"/>
<path d="M475.055 487.879H486.456V476.467H475.055V487.879Z" fill="#2E1B5B"/>
<path d="M475.055 501.291H486.456V489.876H475.055V501.291Z" fill="#2E1B5B"/>
<mask id="mask54_1_441" style="mask-type:luminance" maskUnits="userSpaceOnUse" x="474" y="502" width="13" height="13">
<path d="M474.759 502.985H486.6V514.7H474.759V502.985Z" fill="white"/>
</mask>
<g mask="url(#mask54_1_441)">
<path d="M475.055 514.7H486.456V503.287H475.055V514.7Z" fill="#2E1B5B"/>
</g>
<path d="M488.454 300.134H499.855V288.722H488.454V300.134Z" fill="#2E1B5B"/>
<path d="M488.454 313.546H499.855V302.131H488.454V313.546Z" fill="#2E1B5B"/>
<path d="M488.454 340.366H499.855V328.954H488.454V340.366Z" fill="#2E1B5B"/>
<path d="M488.454 353.775H499.855V342.363H488.454V353.775Z" fill="#2E1B5B"/>
<path d="M488.454 380.595H499.855V369.183H488.454V380.595Z" fill="#2E1B5B"/>
<path d="M488.454 394.007H499.855V382.595H488.454V394.007Z" fill="#2E1B5B"/>
<path d="M488.454 407.418H499.855V396.006H488.454V407.418Z" fill="#2E1B5B"/>
<path d="M488.454 420.827H499.855V409.415H488.454V420.827Z" fill="#2E1B5B"/>
<path d="M488.454 447.647H499.855V436.235H488.454V447.647Z" fill="#2E1B5B"/>
<path d="M488.454 461.059H499.855V449.647H488.454V461.059Z" fill="#2E1B5B"/>
<path d="M488.454 474.471H499.855V463.055H488.454V474.471Z" fill="#2E1B5B"/>
<path d="M488.454 487.879H499.855V476.467H488.454V487.879Z" fill="#2E1B5B"/>
<path d="M488.454 501.291H499.855V489.876H488.454V501.291Z" fill="#2E1B5B"/>
<mask id="mask55_1_441" style="mask-type:luminance" maskUnits="userSpaceOnUse" x="488" y="502" width="13" height="13">
<path d="M488.19 502.985H500.062V514.7H488.19V502.985Z" fill="white"/>
</mask>
<g mask="url(#mask55_1_441)">
<path d="M488.454 514.7H499.855V503.287H488.454V514.7Z" fill="#2E1B5B"/>
</g>
<path d="M501.846 286.726H513.251V275.31H501.846V286.726Z" fill="#2E1B5B"/>
<path d="M501.846 313.546H513.251V302.131H501.846V313.546Z" fill="#2E1B5B"/>
<path d="M501.846 353.775H513.251V342.363H501.846V353.775Z" fill="#2E1B5B"/>
<path d="M501.846 380.595H513.251V369.183H501.846V380.595Z" fill="#2E1B5B"/>
<path d="M501.846 407.418H513.251V396.006H501.846V407.418Z" fill="#2E1B5B"/>
<path d="M501.846 420.827H513.251V409.415H501.846V420.827Z" fill="#2E1B5B"/>
<path d="M501.846 434.239H513.251V422.826H501.846V434.239Z" fill="#2E1B5B"/>
<path d="M501.846 447.647H513.251V436.235H501.846V447.647Z" fill="#2E1B5B"/>
<path d="M501.846 461.059H513.251V449.647H501.846V461.059Z" fill="#2E1B5B"/>
<path d="M501.846 487.879H513.251V476.467H501.846V487.879Z" fill="#2E1B5B"/>
<path d="M501.846 501.291H513.251V489.876H501.846V501.291Z" fill="#2E1B5B"/>
<mask id="mask56_1_441" style="mask-type:luminance" maskUnits="userSpaceOnUse" x="501" y="502" width="13" height="13">
<path d="M501.622 502.985H513.433V514.7H501.622V502.985Z" fill="white"/>
</mask>
<g mask="url(#mask56_1_441)">
<path d="M501.846 514.7H513.251V503.287H501.846V514.7Z" fill="#2E1B5B"/>
</g>
<path d="M515.245 286.726H526.646V275.31H515.245V286.726Z" fill="#2E1B5B"/>
<path d="M515.245 353.775H526.646V342.363H515.245V353.775Z" fill="#2E1B5B"/>
<path d="M515.245 367.186H526.646V355.774H515.245V367.186Z" fill="#2E1B5B"/>
<path d="M515.245 380.595H526.646V369.183H515.245V380.595Z" fill="#2E1B5B"/>
<path d="M515.245 394.007H526.646V382.595H515.245V394.007Z" fill="#2E1B5B"/>
<path d="M515.245 407.418H526.646V396.006H515.245V407.418Z" fill="#2E1B5B"/>
<path d="M515.245 420.827H526.646V409.415H515.245V420.827Z" fill="#2E1B5B"/>
<path d="M515.245 447.647H526.646V436.235H515.245V447.647Z" fill="#2E1B5B"/>
<path d="M515.245 474.471H526.646V463.055H515.245V474.471Z" fill="#2E1B5B"/>
<path d="M515.245 487.879H526.646V476.467H515.245V487.879Z" fill="#2E1B5B"/>
<path d="M515.245 501.291H526.646V489.876H515.245V501.291Z" fill="#2E1B5B"/>
<mask id="mask57_1_441" style="mask-type:luminance" maskUnits="userSpaceOnUse" x="515" y="502" width="12" height="13">
<path d="M515.057 502.985H526.925V514.7H515.057V502.985Z" fill="white"/>
</mask>
<g mask="url(#mask57_1_441)">
<path d="M515.245 514.7H526.646V503.287H515.245V514.7Z" fill="#2E1B5B"/>
</g>
<path d="M528.644 300.134H540.045V288.722H528.644V300.134Z" fill="#2E1B5B"/>
<path d="M528.644 313.546H540.045V302.131H528.644V313.546Z" fill="#2E1B5B"/>
<path d="M528.644 340.366H540.045V328.954H528.644V340.366Z" fill="#2E1B5B"/>
<path d="M528.644 367.186H540.045V355.774H528.644V367.186Z" fill="#2E1B5B"/>
<path d="M528.644 420.827H540.045V409.415H528.644V420.827Z" fill="#2E1B5B"/>
<path d="M528.644 434.239H540.045V422.826H528.644V434.239Z" fill="#2E1B5B"/>
<path d="M528.644 461.059H540.045V449.647H528.644V461.059Z" fill="#2E1B5B"/>
<path d="M528.644 474.471H540.045V463.055H528.644V474.471Z" fill="#2E1B5B"/>
<path d="M528.644 501.291H540.045V489.876H528.644V501.291Z" fill="#2E1B5B"/>
<mask id="mask58_1_441" style="mask-type:luminance" maskUnits="userSpaceOnUse" x="528" y="502" width="13" height="13">
<path d="M528.488 502.985H540.045V514.7H528.488V502.985Z" fill="white"/>
</mask>
<g mask="url(#mask58_1_441)">
<path d="M528.644 514.7H540.045V503.287H528.644V514.7Z" fill="#2E1B5B"/>
</g>
<path d="M542.043 286.726H553.444V275.31H542.043V286.726Z" fill="#2E1B5B"/>
<path d="M542.043 300.134H553.444V288.722H542.043V300.134Z" fill="#2E1B5B"/>
<path d="M542.043 353.775H553.444V342.363H542.043V353.775Z" fill="#2E1B5B"/>
<path d="M542.043 367.186H553.444V355.774H542.043V367.186Z" fill="#2E1B5B"/>
<path d="M542.043 380.595H553.444V369.183H542.043V380.595Z" fill="#2E1B5B"/>
<path d="M542.043 407.418H553.444V396.006H542.043V407.418Z" fill="#2E1B5B"/>
<path d="M542.043 420.827H553.444V409.415H542.043V420.827Z" fill="#2E1B5B"/>
<path d="M542.043 447.647H553.444V436.235H542.043V447.647Z" fill="#2E1B5B"/>
<path d="M542.043 487.879H553.444V476.467H542.043V487.879Z" fill="#2E1B5B"/>
<path d="M542.043 501.291H553.444V489.876H542.043V501.291Z" fill="#2E1B5B"/>
<mask id="mask59_1_441" style="mask-type:luminance" maskUnits="userSpaceOnUse" x="541" y="502" width="13" height="13">
<path d="M541.92 502.985H553.48V514.7H541.92V502.985Z" fill="white"/>
</mask>
<g mask="url(#mask59_1_441)">
<path d="M542.043 514.7H553.444V503.287H542.043V514.7Z" fill="#2E1B5B"/>
</g>
<path d="M555.438 313.546H566.839V302.131H555.438V313.546Z" fill="#2E1B5B"/>
<path d="M555.438 326.955H566.839V315.542H555.438V326.955Z" fill="#2E1B5B"/>
<path d="M555.438 340.366H566.839V328.954H555.438V340.366Z" fill="#2E1B5B"/>
<path d="M555.438 353.775H566.839V342.363H555.438V353.775Z" fill="#2E1B5B"/>
<path d="M555.438 380.595H566.839V369.183H555.438V380.595Z" fill="#2E1B5B"/>
<path d="M555.438 394.007H566.839V382.595H555.438V394.007Z" fill="#2E1B5B"/>
<path d="M555.438 407.418H566.839V396.006H555.438V407.418Z" fill="#2E1B5B"/>
<path d="M555.438 420.827H566.839V409.415H555.438V420.827Z" fill="#2E1B5B"/>
<path d="M555.438 434.239H566.839V422.826H555.438V434.239Z" fill="#2E1B5B"/>
<path d="M555.438 461.059H566.839V449.647H555.438V461.059Z" fill="#2E1B5B"/>
<path d="M555.438 474.471H566.839V463.055H555.438V474.471Z" fill="#2E1B5B"/>
<path d="M555.438 501.291H566.839V489.876H555.438V501.291Z" fill="#2E1B5B"/>
<mask id="mask60_1_441" style="mask-type:luminance" maskUnits="userSpaceOnUse" x="555" y="502" width="12" height="13">
<path d="M555.354 502.985H566.911V514.7H555.354V502.985Z" fill="white"/>
</mask>
<g mask="url(#mask60_1_441)">
<path d="M555.438 514.7H566.839V503.287H555.438V514.7Z" fill="#2E1B5B"/>
</g>
<mask id="mask61_1_441" style="mask-type:luminance" maskUnits="userSpaceOnUse" x="568" y="261" width="13" height="13">
<path d="M568.786 261.902H580.106V273.473H568.786V261.902Z" fill="white"/>
</mask>
<g mask="url(#mask61_1_441)">
<path d="M568.837 273.314H580.238V261.902H568.837V273.314Z" fill="#2E1B5B"/>
</g>
<mask id="mask62_1_441" style="mask-type:luminance" maskUnits="userSpaceOnUse" x="568" y="288" width="13" height="13">
<path d="M568.786 288.545H580.106V300.362H568.786V288.545Z" fill="white"/>
</mask>
<g mask="url(#mask62_1_441)">
<path d="M568.837 300.134H580.238V288.722H568.837V300.134Z" fill="#2E1B5B"/>
</g>
<mask id="mask63_1_441" style="mask-type:luminance" maskUnits="userSpaceOnUse" x="568" y="328" width="13" height="13">
<path d="M568.786 328.816H580.106V340.387H568.786V328.816Z" fill="white"/>
</mask>
<g mask="url(#mask63_1_441)">
<path d="M568.837 340.366H580.238V328.954H568.837V340.366Z" fill="#2E1B5B"/>
</g>
<mask id="mask64_1_441" style="mask-type:luminance" maskUnits="userSpaceOnUse" x="568" y="355" width="13" height="13">
<path d="M568.786 355.708H580.106V367.276H568.786V355.708Z" fill="white"/>
</mask>
<g mask="url(#mask64_1_441)">
<path d="M568.837 367.186H580.238V355.774H568.837V367.186Z" fill="#2E1B5B"/>
</g>
<mask id="mask65_1_441" style="mask-type:luminance" maskUnits="userSpaceOnUse" x="568" y="369" width="13" height="12">
<path d="M568.786 369.153H580.106V380.634H568.786V369.153Z" fill="white"/>
</mask>
<g mask="url(#mask65_1_441)">
<path d="M568.837 380.595H580.238V369.183H568.837V380.595Z" fill="#2E1B5B"/>
</g>
<mask id="mask66_1_441" style="mask-type:luminance" maskUnits="userSpaceOnUse" x="568" y="422" width="13" height="13">
<path d="M568.786 422.623H580.106V434.353H568.786V422.623Z" fill="white"/>
</mask>
<g mask="url(#mask66_1_441)">
<path d="M568.837 434.239H580.238V422.826H568.837V434.239Z" fill="#2E1B5B"/>
</g>
<mask id="mask67_1_441" style="mask-type:luminance" maskUnits="userSpaceOnUse" x="568" y="436" width="13" height="12">
<path d="M568.786 436.07H580.106V447.95H568.786V436.07Z" fill="white"/>
</mask>
<g mask="url(#mask67_1_441)">
<path d="M568.837 447.647H580.238V436.235H568.837V447.647Z" fill="#2E1B5B"/>
</g>
<mask id="mask68_1_441" style="mask-type:luminance" maskUnits="userSpaceOnUse" x="568" y="476" width="13" height="12">
<path d="M568.786 476.407H580.106V487.975H568.786V476.407Z" fill="white"/>
</mask>
<g mask="url(#mask68_1_441)">
<path d="M568.837 487.879H580.238V476.467H568.837V487.879Z" fill="#2E1B5B"/>
</g>
<mask id="mask69_1_441" style="mask-type:luminance" maskUnits="userSpaceOnUse" x="568" y="489" width="13" height="13">
<path d="M568.786 489.852H580.106V501.42H568.786V489.852Z" fill="white"/>
</mask>
<g mask="url(#mask69_1_441)">
<path d="M568.837 501.291H580.238V489.876H568.837V501.291Z" fill="#2E1B5B"/>
</g>
<mask id="mask70_1_441" style="mask-type:luminance" maskUnits="userSpaceOnUse" x="568" y="502" width="13" height="13">
<path d="M568.786 502.985H580.106V514.7H568.786V502.985Z" fill="white"/>
</mask>
<g mask="url(#mask70_1_441)">
<path d="M568.837 514.7H580.238V503.287H568.837V514.7Z" fill="#2E1B5B"/>
</g>
<path d="M312 23H316V27H312V23Z" fill="#FFE05D"/>
<path opacity="0.7" d="M505 116H507.864V118.864H505V116Z" fill="#FFE05D"/>
</svg>
